<?xml version="1.0" standalone="no"?>
<svg xmlns:xlink="http://www.w3.org/1999/xlink" id="wave" style="transform:rotate(0deg); transition: 0.3s" viewBox="0 0 1440 390" version="1.1" xmlns="http://www.w3.org/2000/svg"><defs><linearGradient id="sw-gradient-0" x1="0" x2="0" y1="1" y2="0"><stop stop-color="rgba(243, 106, 62, 1)" offset="0%"/><stop stop-color="rgba(255, 179, 11, 1)" offset="100%"/></linearGradient></defs><path style="transform:translate(0, 0px); opacity:1" fill="url(#sw-gradient-0)" d="M0,273L26.7,273C53.3,273,107,273,160,260C213.3,247,267,221,320,208C373.3,195,427,195,480,162.5C533.3,130,587,65,640,78C693.3,91,747,182,800,208C853.3,234,907,195,960,162.5C1013.3,130,1067,104,1120,130C1173.3,156,1227,234,1280,266.5C1333.3,299,1387,286,1440,292.5C1493.3,299,1547,325,1600,279.5C1653.3,234,1707,117,1760,58.5C1813.3,0,1867,0,1920,52C1973.3,104,2027,208,2080,266.5C2133.3,325,2187,338,2240,325C2293.3,312,2347,273,2400,260C2453.3,247,2507,260,2560,247C2613.3,234,2667,195,2720,162.5C2773.3,130,2827,104,2880,130C2933.3,156,2987,234,3040,279.5C3093.3,325,3147,338,3200,325C3253.3,312,3307,273,3360,247C3413.3,221,3467,208,3520,169C3573.3,130,3627,65,3680,84.5C3733.3,104,3787,208,3813,260L3840,312L3840,390L3813.3,390C3786.7,390,3733,390,3680,390C3626.7,390,3573,390,3520,390C3466.7,390,3413,390,3360,390C3306.7,390,3253,390,3200,390C3146.7,390,3093,390,3040,390C2986.7,390,2933,390,2880,390C2826.7,390,2773,390,2720,390C2666.7,390,2613,390,2560,390C2506.7,390,2453,390,2400,390C2346.7,390,2293,390,2240,390C2186.7,390,2133,390,2080,390C2026.7,390,1973,390,1920,390C1866.7,390,1813,390,1760,390C1706.7,390,1653,390,1600,390C1546.7,390,1493,390,1440,390C1386.7,390,1333,390,1280,390C1226.7,390,1173,390,1120,390C1066.7,390,1013,390,960,390C906.7,390,853,390,800,390C746.7,390,693,390,640,390C586.7,390,533,390,480,390C426.7,390,373,390,320,390C266.7,390,213,390,160,390C106.7,390,53,390,27,390L0,390Z"/></svg>