<?xml version="1.0" standalone="no"?><svg xmlns="http://www.w3.org/2000/svg" viewBox="0 0 1440 320"><path fill="#ff7f00" fill-opacity="1" d="M0,32L26.7,37.3C53.3,43,107,53,160,58.7C213.3,64,267,64,320,58.7C373.3,53,427,43,480,69.3C533.3,96,587,160,640,170.7C693.3,181,747,139,800,144C853.3,149,907,203,960,197.3C1013.3,192,1067,128,1120,117.3C1173.3,107,1227,149,1280,144C1333.3,139,1387,85,1413,58.7L1440,32L1440,320L1413.3,320C1386.7,320,1333,320,1280,320C1226.7,320,1173,320,1120,320C1066.7,320,1013,320,960,320C906.7,320,853,320,800,320C746.7,320,693,320,640,320C586.7,320,533,320,480,320C426.7,320,373,320,320,320C266.7,320,213,320,160,320C106.7,320,53,320,27,320L0,320Z"></path></svg>