<?xml version="1.0" standalone="no"?>
<svg xmlns:xlink="http://www.w3.org/1999/xlink" id="wave" style="transform:rotate(0deg); transition: 0.3s" viewBox="0 0 1440 260" version="1.1" xmlns="http://www.w3.org/2000/svg"><defs><linearGradient id="sw-gradient-0" x1="0" x2="0" y1="1" y2="0"><stop stop-color="rgba(243, 106, 62, 1)" offset="0%"/><stop stop-color="rgba(255, 179, 11, 1)" offset="100%"/></linearGradient></defs><path style="transform:translate(0, 0px); opacity:1" fill="url(#sw-gradient-0)" d="M0,26L24,34.7C48,43,96,61,144,95.3C192,130,240,182,288,199.3C336,217,384,199,432,164.7C480,130,528,78,576,86.7C624,95,672,165,720,164.7C768,165,816,95,864,73.7C912,52,960,78,1008,108.3C1056,139,1104,173,1152,164.7C1200,156,1248,104,1296,104C1344,104,1392,156,1440,173.3C1488,191,1536,173,1584,164.7C1632,156,1680,156,1728,156C1776,156,1824,156,1872,130C1920,104,1968,52,2016,47.7C2064,43,2112,87,2160,91C2208,95,2256,61,2304,69.3C2352,78,2400,130,2448,151.7C2496,173,2544,165,2592,169C2640,173,2688,191,2736,195C2784,199,2832,191,2880,164.7C2928,139,2976,95,3024,65C3072,35,3120,17,3168,21.7C3216,26,3264,52,3312,52C3360,52,3408,26,3432,13L3456,0L3456,260L3432,260C3408,260,3360,260,3312,260C3264,260,3216,260,3168,260C3120,260,3072,260,3024,260C2976,260,2928,260,2880,260C2832,260,2784,260,2736,260C2688,260,2640,260,2592,260C2544,260,2496,260,2448,260C2400,260,2352,260,2304,260C2256,260,2208,260,2160,260C2112,260,2064,260,2016,260C1968,260,1920,260,1872,260C1824,260,1776,260,1728,260C1680,260,1632,260,1584,260C1536,260,1488,260,1440,260C1392,260,1344,260,1296,260C1248,260,1200,260,1152,260C1104,260,1056,260,1008,260C960,260,912,260,864,260C816,260,768,260,720,260C672,260,624,260,576,260C528,260,480,260,432,260C384,260,336,260,288,260C240,260,192,260,144,260C96,260,48,260,24,260L0,260Z"/><defs><linearGradient id="sw-gradient-1" x1="0" x2="0" y1="1" y2="0"><stop stop-color="rgba(243, 106, 62, 1)" offset="0%"/><stop stop-color="rgba(255, 179, 11, 1)" offset="100%"/></linearGradient></defs><path style="transform:translate(0, 50px); opacity:0.9" fill="url(#sw-gradient-1)" d="M0,78L24,65C48,52,96,26,144,34.7C192,43,240,87,288,91C336,95,384,61,432,73.7C480,87,528,147,576,177.7C624,208,672,208,720,208C768,208,816,208,864,186.3C912,165,960,121,1008,95.3C1056,69,1104,61,1152,86.7C1200,113,1248,173,1296,203.7C1344,234,1392,234,1440,216.7C1488,199,1536,165,1584,164.7C1632,165,1680,199,1728,199.3C1776,199,1824,165,1872,134.3C1920,104,1968,78,2016,91C2064,104,2112,156,2160,147.3C2208,139,2256,69,2304,60.7C2352,52,2400,104,2448,104C2496,104,2544,52,2592,26C2640,0,2688,0,2736,34.7C2784,69,2832,139,2880,151.7C2928,165,2976,121,3024,108.3C3072,95,3120,113,3168,112.7C3216,113,3264,95,3312,73.7C3360,52,3408,26,3432,13L3456,0L3456,260L3432,260C3408,260,3360,260,3312,260C3264,260,3216,260,3168,260C3120,260,3072,260,3024,260C2976,260,2928,260,2880,260C2832,260,2784,260,2736,260C2688,260,2640,260,2592,260C2544,260,2496,260,2448,260C2400,260,2352,260,2304,260C2256,260,2208,260,2160,260C2112,260,2064,260,2016,260C1968,260,1920,260,1872,260C1824,260,1776,260,1728,260C1680,260,1632,260,1584,260C1536,260,1488,260,1440,260C1392,260,1344,260,1296,260C1248,260,1200,260,1152,260C1104,260,1056,260,1008,260C960,260,912,260,864,260C816,260,768,260,720,260C672,260,624,260,576,260C528,260,480,260,432,260C384,260,336,260,288,260C240,260,192,260,144,260C96,260,48,260,24,260L0,260Z"/><defs><linearGradient id="sw-gradient-2" x1="0" x2="0" y1="1" y2="0"><stop stop-color="rgba(243, 106, 62, 1)" offset="0%"/><stop stop-color="rgba(255, 179, 11, 1)" offset="100%"/></linearGradient></defs><path style="transform:translate(0, 100px); opacity:0.8" fill="url(#sw-gradient-2)" d="M0,234L24,195C48,156,96,78,144,69.3C192,61,240,121,288,151.7C336,182,384,182,432,177.7C480,173,528,165,576,173.3C624,182,672,208,720,221C768,234,816,234,864,208C912,182,960,130,1008,125.7C1056,121,1104,165,1152,186.3C1200,208,1248,208,1296,212.3C1344,217,1392,225,1440,221C1488,217,1536,199,1584,173.3C1632,147,1680,113,1728,91C1776,69,1824,61,1872,73.7C1920,87,1968,121,2016,117C2064,113,2112,69,2160,47.7C2208,26,2256,26,2304,34.7C2352,43,2400,61,2448,91C2496,121,2544,165,2592,169C2640,173,2688,139,2736,134.3C2784,130,2832,156,2880,173.3C2928,191,2976,199,3024,173.3C3072,147,3120,87,3168,69.3C3216,52,3264,78,3312,108.3C3360,139,3408,173,3432,190.7L3456,208L3456,260L3432,260C3408,260,3360,260,3312,260C3264,260,3216,260,3168,260C3120,260,3072,260,3024,260C2976,260,2928,260,2880,260C2832,260,2784,260,2736,260C2688,260,2640,260,2592,260C2544,260,2496,260,2448,260C2400,260,2352,260,2304,260C2256,260,2208,260,2160,260C2112,260,2064,260,2016,260C1968,260,1920,260,1872,260C1824,260,1776,260,1728,260C1680,260,1632,260,1584,260C1536,260,1488,260,1440,260C1392,260,1344,260,1296,260C1248,260,1200,260,1152,260C1104,260,1056,260,1008,260C960,260,912,260,864,260C816,260,768,260,720,260C672,260,624,260,576,260C528,260,480,260,432,260C384,260,336,260,288,260C240,260,192,260,144,260C96,260,48,260,24,260L0,260Z"/></svg>